<?xml version="1.0" standalone="no"?>
<!DOCTYPE svg PUBLIC "-//W3C//DTD SVG 20010904//EN"
 "http://www.w3.org/TR/2001/REC-SVG-20010904/DTD/svg10.dtd">
<svg version="1.0" xmlns="http://www.w3.org/2000/svg"
 width="256.000000pt" height="256.000000pt" viewBox="0 0 256.000000 256.000000"
 preserveAspectRatio="xMidYMid meet">

<g transform="translate(0.000000,256.000000) scale(0.100000,-0.100000)"
fill="#000000" stroke="none">
<path d="M0 1280 l0 -1280 1280 0 1280 0 0 1280 0 1280 -1280 0 -1280 0 0
-1280z m2100 1121 l135 -6 -3 -62 -4 -62 34 -5 c18 -4 53 -7 78 -9 l45 -2 8
-225 c9 -267 5 -1695 -5 -1705 -4 -4 -40 -10 -80 -13 l-73 -7 3 -61 c3 -52 1
-62 -15 -69 -58 -24 -1828 -28 -1890 -4 -21 8 -23 15 -23 76 l0 68 -72 0 -73
0 -8 120 c-9 133 -5 1790 4 1799 3 3 37 9 75 13 l69 8 3 60 c2 33 8 65 13 70
6 6 102 12 222 15 304 8 1398 9 1557 1z"/>
<path d="M470 2168 l0 -68 -75 0 -75 0 0 -815 0 -815 75 0 75 0 0 -70 0 -70
810 0 810 0 0 65 0 65 70 0 70 0 0 644 0 644 -630 4 c-513 2 -632 5 -639 16
-5 8 -10 112 -13 233 -3 121 -7 221 -9 223 -2 2 -109 6 -237 7 l-232 4 0 -67z
m489 -1043 l2 -156 -162 3 -163 3 1 33 c1 17 2 86 2 152 l1 120 158 0 159 0 2
-155z m474 -3 l2 -152 -157 0 -158 0 0 155 0 156 156 -3 155 -3 2 -153z m485
3 l-3 -155 -157 0 -158 0 0 155 0 155 161 0 161 0 -4 -155z"/>
<path d="M1130 2083 l0 -153 544 0 544 0 6 31 c3 17 6 51 6 75 l0 44 -63 0
c-36 0 -68 5 -75 12 -7 7 -12 39 -12 75 l0 63 -222 2 c-123 1 -337 2 -475 3
l-253 1 0 -153z"/>
</g>
</svg>
